<svg xmlns="http://www.w3.org/2000/svg" width="1600" height="900" viewBox="0 0 1600 900" fill="none">
  <defs>
    <linearGradient id="bg-mali" x1="0" y1="0" x2="1600" y2="900" gradientUnits="userSpaceOnUse">
      <stop stop-color="#042f2e"/>
      <stop offset="1" stop-color="#064e3b"/>
    </linearGradient>
    <linearGradient id="card" x1="0" y1="0" x2="1" y2="1">
      <stop stop-color="#ffffff" stop-opacity="0.16"/>
      <stop offset="1" stop-color="#ffffff" stop-opacity="0.04"/>
    </linearGradient>
  </defs>

  <rect width="1600" height="900" fill="url(#bg-mali)"/>

  <circle cx="1420" cy="120" r="210" fill="#10b981" fill-opacity="0.16"/>
  <circle cx="220" cy="760" r="240" fill="#34d399" fill-opacity="0.14"/>

  <rect x="160" y="130" width="1280" height="640" rx="34" fill="url(#card)" stroke="#a7f3d0" stroke-opacity="0.35"/>

  <rect x="250" y="230" width="360" height="220" rx="18" fill="#ffffff" fill-opacity="0.1" stroke="#d1fae5" stroke-opacity="0.4"/>
  <rect x="280" y="260" width="90" height="160" rx="10" fill="#14b8a6"/>
  <rect x="370" y="260" width="90" height="160" rx="10" fill="#f8fafc"/>
  <rect x="460" y="260" width="90" height="160" rx="10" fill="#f59e0b"/>
  <text x="250" y="500" fill="#ecfeff" font-family="Segoe UI, Arial, sans-serif" font-size="44" font-weight="700">RÉPUBLIQUE DU MALI</text>

  <text x="740" y="295" fill="#d1fae5" font-family="Segoe UI, Arial, sans-serif" font-size="36" font-weight="700" letter-spacing="1">MOBILE MONEY · SUPERVISION FISCALE</text>
  <text x="740" y="360" fill="#ecfdf5" font-family="Segoe UI, Arial, sans-serif" font-size="86" font-weight="800">100%</text>
  <text x="740" y="410" fill="#a7f3d0" font-family="Segoe UI, Arial, sans-serif" font-size="30" font-weight="600">visibilité des transactions</text>

  <rect x="740" y="470" width="560" height="14" rx="7" fill="#134e4a"/>
  <rect x="740" y="470" width="560" height="14" rx="7" fill="#10b981"/>

  <text x="740" y="560" fill="#ecfdf5" font-family="Segoe UI, Arial, sans-serif" font-size="28" font-weight="600">• Traitement des métadonnées financières nationales</text>
  <text x="740" y="610" fill="#ecfdf5" font-family="Segoe UI, Arial, sans-serif" font-size="28" font-weight="600">• Rapports fiscaux détaillés pour le Ministère des Finances</text>
  <text x="740" y="660" fill="#ecfdf5" font-family="Segoe UI, Arial, sans-serif" font-size="28" font-weight="600">• Transparence opérationnelle en temps réel</text>

  <text x="160" y="850" fill="#6ee7b7" font-family="Segoe UI, Arial, sans-serif" font-size="24" font-weight="700" letter-spacing="1">MAZEN GOVTECH GROUPE</text>
</svg>
